<svg version="1.1" viewBox="0.0 0.0 177.48031496062993 67.1994750656168" fill="none" stroke="none" stroke-linecap="square" stroke-miterlimit="10" xmlns:xlink="http://www.w3.org/1999/xlink" xmlns="http://www.w3.org/2000/svg"><clipPath id="p.0"><path d="m0 0l177.48032 0l0 67.19948l-177.48032 0l0 -67.19948z" clip-rule="nonzero"/></clipPath><g clip-path="url(#p.0)"><path fill="#000000" fill-opacity="0.0" d="m0 0l177.48032 0l0 67.19948l-177.48032 0z" fill-rule="evenodd"/><path fill="#000000" fill-opacity="0.0" d="m-6.664244 -5.1851025l197.76378 0l0 60.220474l-197.76378 0z" fill-rule="evenodd"/><path fill="#000000" d="m5.695131 11.8117695l9.546875 0l0 17.5l6.671875 0l0 -17.5l9.59375 0l0 43.203125l-9.59375 0l0 -18.875l-6.671875 0l0 18.875l-9.546875 0l0 -43.203125zm41.967606 43.734375q-5.0625 0 -7.890625 -2.6875q-2.828125 -2.703125 -2.828125 -7.609375l0 -11.296875q0 -4.906248 2.828125 -7.593748q2.828125 -2.703125 7.890625 -2.703125q5.125 0 7.671875 2.625q2.5625 2.609375 2.5625 7.671873l0 6.1875l-12.359375 0l0 5.921875q0 3.296875 2.125 3.296875q2.234375 0 2.234375 -2.984375l0 -3.25l8.0 0l0 2.984375q0 4.640625 -2.6875 7.046875q-2.6875 2.390625 -7.546875 2.390625zm2.234375 -19.46875l0 -3.09375q0 -1.7031231 -0.609375 -2.421873q-0.609375 -0.71875 -1.671875 -0.71875q-1.015625 0 -1.546875 0.796875q-0.53125 0.796875 -0.53125 2.828123l0 2.609375l4.359375 0zm12.751678 -23.140623l8.75 0l0 6.03125l-8.75 0l0 -6.03125zm0.046875 11.25l8.703125 0l0 30.828123l-8.703125 0l0 -30.828123zm14.0850525 -12.375l8.640625 0l0 23.953123l7.578125 -11.578123l9.75 0l-8.203125 12.640623l8.09375 18.1875l-9.484375 0l-5.4375 -14.671875l-2.296875 2.9375l0 11.734375l-8.640625 0l0 -43.203125zm38.92859 43.734375q-5.0625 0 -7.890625 -2.6875q-2.828125 -2.703125 -2.828125 -7.609375l0 -11.296875q0 -4.906248 2.828125 -7.593748q2.828125 -2.703125 7.890625 -2.703125q5.125 0 7.671875 2.625q2.5625 2.609375 2.5625 7.671873l0 6.1875l-12.359375 0l0 5.921875q0 3.296875 2.125 3.296875q2.234375 0 2.234375 -2.984375l0 -3.25l8.0 0l0 2.984375q0 4.640625 -2.6875 7.046875q-2.6875 2.390625 -7.546875 2.390625zm2.234375 -19.46875l0 -3.09375q0 -1.7031231 -0.609375 -2.421873q-0.609375 -0.71875 -1.671875 -0.71875q-1.015625 0 -1.546875 0.796875q-0.53125 0.796875 -0.53125 2.828123l0 2.609375l4.359375 0zm12.861053 -11.890623l8.6875 0l0 5.125q1.609375 -2.828125 3.09375 -4.15625q1.5 -1.34375 3.515625 -1.34375q0.75 0 1.34375 0.171875l0 8.640623q-1.609375 -0.6406231 -2.828125 -0.6406231q-2.828125 0 -5.125 2.984373l0 20.046875l-8.6875 0l0 -30.828123zm29.815262 31.359373q-4.109375 0 -6.8125 -1.828125q-2.6875 -1.84375 -4.34375 -5.90625l5.921875 -2.609375q0.859375 2.140625 2.0 3.3125q1.140625 1.171875 2.53125 1.171875q2.03125 0 2.03125 -1.609375q0 -1.171875 -0.796875 -2.09375q-0.796875 -0.9375 -3.46875 -3.125l-2.234375 -1.875q-2.78125 -2.34375 -4.03125 -4.265625q-1.25 -1.921875 -1.25 -4.578125q0 -2.453123 1.296875 -4.374998q1.3125 -1.921875 3.5 -3.015625q2.1875 -1.09375 4.6875 -1.09375q3.78125 0 6.3125 2.0625q2.546875 2.046875 3.609375 5.890625l-5.59375 2.562498q-0.546875 -1.71875 -1.671875 -3.078123q-1.109375 -1.359375 -2.4375 -1.359375q-0.859375 0 -1.375 0.484375q-0.5 0.484375 -0.5 1.28125q0 0.9531231 1.03125 2.078123q1.046875 1.125 3.296875 2.9375l2.1875 1.921875q2.65625 2.234375 4.09375 4.1875q1.453125 1.9375 1.453125 4.546875q0 2.625 -1.3125 4.515625q-1.3125 1.890625 -3.46875 2.875q-2.15625 0.984375 -4.65625 0.984375z" fill-rule="nonzero"/></g></svg>